<svg width="200" height="160" viewBox="0 0 200 160" fill="none" xmlns="http://www.w3.org/2000/svg">
<g clip-path="url(#clip0_222_1648)">
<path d="M168.553 152.659C169.341 152.708 169.776 151.729 169.18 151.159L169.12 150.923C169.128 150.905 169.136 150.886 169.144 150.867C169.613 149.746 170.907 149.216 172.03 149.68C175.58 151.148 171.832 154.521 172.114 156.804C172.212 157.591 175.298 157.635 175.124 158.408C176.765 154.82 177.628 150.903 177.626 146.963C177.626 145.974 177.571 144.984 177.46 143.997C177.369 143.189 177.243 142.387 177.08 141.591C176.2 137.293 174.295 133.199 171.549 129.78C170.229 129.059 171.034 127.931 170.369 126.58C170.13 126.093 167.998 126.082 167.91 125.547C168.005 125.56 169.383 124.129 168.928 123.422C168.628 122.956 168.721 122.363 169.106 121.965C169.144 121.926 169.179 121.885 169.212 121.841C170.348 120.299 171.915 120.568 172.733 122.662C174.48 123.543 174.498 125.005 173.426 126.411C172.745 127.306 172.651 128.517 172.053 129.475C172.115 129.554 172.179 129.63 172.241 129.709C173.37 131.156 174.347 132.712 175.17 134.346C174.937 132.529 175.28 130.34 175.865 128.929C176.535 127.31 177.797 125.948 178.902 124.547C180.222 122.874 182.909 123.633 183.142 125.751C183.144 125.772 183.147 125.792 183.149 125.812C182.985 125.905 182.825 126.003 182.669 126.106C181.777 126.696 182.086 128.079 183.143 128.241L183.167 128.245C183.108 128.833 181.02 130.687 180.872 131.261C182.285 136.715 181.228 137.435 176.883 137.526L176.654 137.851C177.066 139.035 177.398 140.247 177.646 141.475C177.881 142.615 178.044 143.767 178.135 144.925C178.249 146.385 178.24 147.852 178.117 149.31L178.124 149.258C178.436 147.652 179.308 146.153 180.573 145.113C182.457 143.564 185.121 142.993 187.154 141.747C188.133 141.148 189.388 141.922 189.217 143.057L189.209 143.111C188.906 143.234 188.611 143.377 188.325 143.537C188.162 143.63 188.001 143.728 187.845 143.832C186.953 144.422 187.262 145.804 188.319 145.966L188.343 145.97C188.361 145.972 188.375 145.975 188.393 145.977C187.873 147.211 182.928 148.951 182.022 149.939C181.142 154.703 181.574 154.561 177.52 153.175H177.518C177.075 155.106 176.428 156.992 175.597 158.789L168.727 158.792C168.703 158.715 168.681 158.637 168.658 158.56C169.294 158.6 169.934 158.562 170.559 158.446C170.049 157.821 169.539 157.191 169.03 156.566C169.017 156.554 169.007 156.541 168.998 156.529L168.99 156.519L168.283 154.191C168.338 153.675 168.43 153.163 168.553 152.659Z" fill="#F2F2F2"/>
<path d="M95.963 158.736L35.1793 158.757C32.1257 158.758 29.3903 157.18 27.8626 154.536C27.0986 153.214 26.7166 151.764 26.7161 150.313C26.7156 148.862 27.0968 147.411 27.8597 146.089L58.2322 90.7974C59.7583 88.1522 62.4926 86.5725 65.5462 86.5714C68.5998 86.5704 71.3352 88.1482 72.8631 90.7924L103.278 146.07C104.04 147.388 104.421 148.837 104.421 150.287C104.421 151.737 104.04 153.187 103.277 154.51C101.751 157.155 99.0167 158.735 95.963 158.736ZM27.4801 150.312C27.48 151.632 34.1873 148.787 34.8822 149.99C36.2721 152.395 32.4009 157.996 35.179 157.995C35.179 157.995 101.228 156.535 102.616 154.129C103.311 152.926 103.657 151.606 103.657 150.286C103.656 148.967 103.309 147.647 102.614 146.444L72.1989 91.1669C70.8129 88.7684 68.3246 87.3329 65.5465 87.3338C62.7696 87.3348 27.4802 148.991 27.4801 150.312Z" fill="#047857"/>
<path d="M96.638 157.973C95.8761 159.498 131.56 159.03 131.982 159.03C131.982 159.03 142.012 158.808 142.223 158.443C142.328 158.26 142.381 158.059 142.381 157.859C142.381 157.659 142.328 157.458 142.223 157.276L137.604 148.881C137.393 148.517 137.016 148.299 136.594 148.299C136.576 148.299 136.55 148.315 136.517 148.345C130.356 153.851 122.762 157.491 114.5 157.613C105.715 157.744 96.6864 157.876 96.638 157.973Z" fill="#047857"/>
<path d="M2.85327e-08 158.988C8.77027e-05 159.24 0.2022 159.442 0.453798 159.442L199.547 159.373C199.798 159.373 200 159.171 200 158.919C200 158.667 199.798 158.465 199.546 158.465L0.453485 158.534C0.201887 158.534 -8.76456e-05 158.737 2.85327e-08 158.988Z" fill="#CCCCCC"/>
<path d="M153.955 156.786L150.507 156.787L148.863 143.489L153.951 143.488L153.955 156.786Z" fill="#A0616A"/>
<path d="M142.142 156.712C142.035 156.893 141.979 157.477 141.979 157.687C141.979 158.333 142.503 158.857 143.149 158.857L153.827 158.853C154.268 158.853 154.625 158.495 154.625 158.054L154.625 157.61C154.625 157.61 155.152 156.274 154.064 154.627C154.064 154.627 152.713 155.917 150.693 153.898L150.097 152.82L145.787 155.974L143.398 156.269C142.875 156.333 142.411 156.259 142.142 156.712Z" fill="#2F2E41"/>
<path d="M140.735 145.412L137.469 146.517L131.652 134.446L136.472 132.815L140.735 145.412Z" fill="#A0616A"/>
<path d="M129.521 149.125C129.477 149.331 129.611 149.902 129.678 150.101C129.885 150.713 130.549 151.042 131.162 150.834L141.275 147.411C141.693 147.27 141.917 146.817 141.776 146.399L141.633 145.978C141.633 145.978 141.705 144.543 140.147 143.332C140.147 143.332 139.28 144.987 136.72 143.721L135.81 142.89L132.737 147.259L130.568 148.303C130.093 148.532 129.63 148.61 129.521 149.125Z" fill="#2F2E41"/>
<path d="M135.409 68.2677L128.722 90.4152L120.827 110.337L133.326 138.787L137.96 136.725L132.415 110.59L144.044 92.8562L149.471 148.217L154.106 147.958L160.391 81.1342L161.288 66.585L135.409 68.2677Z" fill="#2F2E41"/>
<path d="M155.606 19.2064L145.822 21.0123L145.051 25.3901L139.129 28.2247L136.05 60.4136C136.05 60.4136 130.903 67.1105 135.023 69.1691L161.288 66.585C161.288 66.585 162.574 61.8238 161.286 61.3721C159.998 60.9203 159.994 49.5476 159.994 49.5476L165.909 26.1554L157.153 23.0684L155.606 19.2064Z" fill="#E6E6E6"/>
<path d="M149.835 19.1219C154.199 19.1219 157.736 15.5844 157.736 11.2207C157.736 6.85702 154.199 3.31953 149.835 3.31953C145.471 3.31953 141.934 6.85702 141.934 11.2207C141.934 15.5844 145.471 19.1219 149.835 19.1219Z" fill="#A0616A"/>
<path d="M155.067 12.3934C154.437 12.7386 155.035 14.3865 154.641 14.529C154.185 14.6937 152.525 12.8033 152.504 10.6859C152.498 10.0451 152.645 9.73738 152.504 8.97757C152.318 7.98369 151.749 6.81144 151.222 6.84256C150.909 6.861 150.604 7.30274 150.581 7.69696C150.549 8.24946 151.086 8.46693 151.009 8.76454C150.861 9.33141 148.608 9.72278 147.805 8.76565C147.176 8.01528 147.659 6.6978 147.378 6.63034C147.17 6.58061 146.948 7.30597 146.097 8.1256C145.776 8.43441 145.299 8.89367 145.029 8.76661C144.639 8.583 144.923 7.28902 144.815 7.27186C144.726 7.25766 144.671 8.16717 144.175 8.98045C143.539 10.0253 142.226 10.8307 141.613 10.4762C141.238 10.259 141.208 9.65429 141.186 9.19504C141.138 8.22751 139.732 6.00201 140.096 4.96699C140.836 2.8604 142.105 4.34535 142.679 3.64233C143.455 2.69061 144.152 3.2023 145.454 2.14655C146.726 1.11518 146.737 0.0785644 147.589 0.0103463C148.356 -0.0510866 148.629 0.767119 149.511 0.650318C150.258 0.551372 150.421 -0.0832325 151.006 0.00916082C151.541 0.0937473 151.576 0.6528 152.287 0.862901C152.741 0.997035 152.841 0.80289 153.355 0.862532C154.424 0.986632 155.143 1.96068 155.277 2.14314C155.796 2.84654 155.595 3.14317 156.132 3.85121C156.595 4.4618 157.622 4.20252 158.008 4.50748C159.27 5.50395 159.812 7.34163 159.823 9.43615C159.83 10.9011 159.639 11.6413 159.213 13.4904C158.889 14.8945 157.39 16.7089 156.564 17.518C156.342 17.7352 155.72 18.344 155.283 18.1591C154.868 17.9838 154.856 17.1956 154.855 17.0915C154.853 16.7336 154.949 16.2907 155.709 15.1693C156.507 13.9914 156.824 13.857 156.776 13.4606C156.69 12.7599 155.57 12.1183 155.067 12.3934Z" fill="#2F2E41"/>
<path d="M127.507 86.0578C127.261 88.1173 128.124 89.9136 129.434 90.0701C130.745 90.2266 132.007 88.684 132.253 86.6245C132.36 85.723 132.255 84.872 131.994 84.1868L132.926 75.4473L128.816 75.097L128.333 83.7496C127.917 84.3539 127.614 85.1563 127.507 86.0578Z" fill="#A0616A"/>
<path d="M139.322 28.0167C139.322 28.0167 137.193 28.047 135.783 30.8009C135.033 32.2643 131.025 59.6296 131.025 59.6296L127.332 82.0469L133.622 82.0786L138.524 60.8488L142.647 48.536L139.322 28.0167Z" fill="#E6E6E6"/>
<path d="M157.024 82.7683C156.422 84.753 156.957 86.6726 158.22 87.056C159.483 87.4393 160.995 86.1412 161.598 84.1565C161.862 83.2877 161.907 82.4314 161.769 81.711L164.216 73.2693L160.23 72.2054L158.241 80.6402C157.726 81.1624 157.288 81.8996 157.024 82.7683Z" fill="#A0616A"/>
<path d="M161.403 26.5432C161.403 26.5432 164.492 24.2246 167.068 27.8288C169.644 31.4329 170.685 61.0454 170.685 61.0454L163.481 79.3306L158.073 77.5299L163.215 55.1254L154.197 38.1334L161.403 26.5432Z" fill="#E6E6E6"/>
<path d="M83.2826 146.542C98.651 146.542 111.11 134.084 111.11 118.715C111.11 103.347 98.651 90.8882 83.2826 90.8882C67.9141 90.8882 55.4556 103.347 55.4556 118.715C55.4556 134.084 67.9141 146.542 83.2826 146.542Z" fill="#34D399"/>
<path d="M83.2877 135.774C84.6987 135.774 85.8426 134.63 85.8426 133.219C85.8426 131.807 84.6987 130.664 83.2877 130.664C81.8766 130.664 80.7327 131.807 80.7327 133.219C80.7327 134.63 81.8766 135.774 83.2877 135.774Z" fill="white"/>
<path d="M83.2767 101.657C83.042 103.216 83.4626 103.543 83.4649 110.266C83.4672 116.989 84.8623 126.004 83.2852 126.004C81.7081 126.005 81.1313 107.401 75.6549 105.755C69.2163 103.819 84.0365 96.6083 83.2767 101.657Z" fill="white"/>
<path d="M45.9349 132.922L43.4209 138.234C46.4602 136.055 51.2075 134.176 54.9853 133.17C51.4654 131.47 47.1582 128.729 44.5851 126.014L46.0311 131.627C29.078 128.174 16.9037 115.169 16.8985 100.271L16.2861 100.06C16.2915 115.621 28.2974 129.397 45.9349 132.922Z" fill="#047857"/>
</g>
<defs>
<clipPath id="clip0_222_1648">
<rect width="200" height="159.442" fill="white"/>
</clipPath>
</defs>
</svg>
